<?xml version="1.0" encoding="iso-8859-1"?>
<!-- Generator: Adobe Illustrator 19.0.0, SVG Export Plug-In . SVG Version: 6.00 Build 0)  -->
<svg version="1.1" id="Layer_1" xmlns="http://www.w3.org/2000/svg" xmlns:xlink="http://www.w3.org/1999/xlink" x="0px" y="0px"
	 viewBox="0 0 512 512" style="enable-background:new 0 0 512 512;" xml:space="preserve">
<path style="fill:#ADEBFF;" d="M117.628,472.806c-0.453-0.002-42.142-0.191-78.212-0.22l-8.981,17.97
	c37.682,0,86.62,0.222,87.111,0.225c4.985,0,9.005-3.997,9.027-8.945C126.595,476.87,122.591,472.829,117.628,472.806z"/>
<polygon style="fill:#B7BF03;" points="244.187,267.813 128.249,383.751 152.078,238.297 244.179,146.196 "/>
<path style="fill:#ADEBFF;" d="M152.078,359.922l-92.101,92.101c0-81.29-8.197-113.428,25.355-146.98l66.746-66.746V359.922z"/>
<polygon style="fill:#51A978;" points="365.804,267.821 273.703,359.922 128.249,383.751 244.187,267.813 "/>
<path style="fill:#51E9D3;" d="M273.703,359.922l-66.746,66.746c-33.552,33.552-65.69,25.355-146.98,25.355l92.101-92.101H273.703z"
	/>
<path style="fill:#B7BF03;" d="M489.297,22.704c33.917,33.917,29.175,66.937-9.826,105.938s-92.514,54.864-143.866,47.754
	l59.129-106.788L489.297,22.704z"/>
<g>
	<path style="fill:#BBE095;" d="M489.297,22.704L335.605,176.396c-7.11-51.352,8.753-104.865,47.754-143.866
		S455.38-11.213,489.297,22.704z"/>
	<path style="fill:#BBE095;" d="M402.59,240.012c0.008,4.964-4.019,8.991-8.983,8.983l-130.61,0.008l17.976-17.976h112.634
		C398.571,231.037,402.59,235.056,402.59,240.012z"/>
</g>
<path style="fill:#E0F4B4;" d="M280.971,231.029l-17.976,17.976l0.008-130.61c-0.008-4.964,4.019-8.991,8.983-8.983
	c4.956,0,8.975,4.019,8.983,8.983v112.634H280.971z"/>
<path style="fill:#80086E;" d="M2.632,509.368c-3.509-3.509-3.509-9.199,0-12.709l456.48-456.48c3.509-3.509,9.2-3.509,12.709,0
	s3.509,9.199,0,12.709l-456.48,456.48C11.831,512.878,6.141,512.877,2.632,509.368z"/>
<g>
</g>
<g>
</g>
<g>
</g>
<g>
</g>
<g>
</g>
<g>
</g>
<g>
</g>
<g>
</g>
<g>
</g>
<g>
</g>
<g>
</g>
<g>
</g>
<g>
</g>
<g>
</g>
<g>
</g>
</svg>
